  0
SECTION
  2
BLOCKS
  0
ENDSEC
  0
SECTION
  2
ENTITIES
  0
LINE
  8
0
 10
-114.585
 20
-68.2596
 11
-113.453
 21
-73.9415
  0
LINE
  8
0
 10
-113.453
 20
-73.9415
 11
-112.785
 21
-77.298
  0
LINE
  8
0
 10
-112.785
 20
-77.298
 11
-112.752
 21
-77.3256
  0
LINE
  8
0
 10
-112.752
 20
-77.3256
 11
-107.34
 21
-81.9151
  0
LINE
  8
0
 10
-107.34
 20
-81.9151
 11
-99.5353
 21
-88.533
  0
LINE
  8
0
 10
-99.5353
 20
-88.533
 11
-95.9134
 21
-89.795
  0
LINE
  8
0
 10
-95.9134
 20
-89.795
 11
-92.0524
 21
-91.1403
  0
LINE
  8
0
 10
-92.0524
 20
-91.1403
 11
-85.9736
 21
-97.193
  0
LINE
  8
0
 10
-85.9736
 20
-97.193
 11
-80.1941
 21
-102.948
  0
LINE
  8
0
 10
-80.1941
 20
-102.948
 11
-80.1661
 21
-102.975
  0
LINE
  8
0
 10
-80.1661
 20
-102.975
 11
-80.1251
 21
-103.016
  0
LINE
  8
0
 10
-80.1251
 20
-103.016
 11
-75.2102
 21
-103.049
  0
LINE
  8
0
 10
-75.2102
 20
-103.049
 11
-71.8483
 21
-103.072
  0
LINE
  8
0
 10
-71.8483
 20
-103.072
 11
-71.1655
 21
-102.735
  0
LINE
  8
0
 10
-71.1655
 20
-102.735
 11
-69.9908
 21
-102.157
  0
LINE
  8
0
 10
-69.9908
 20
-102.157
 11
-69.9596
 21
-102.114
  0
LINE
  8
0
 10
-69.9596
 20
-102.114
 11
-69.9596
 21
-102.114
  0
LINE
  8
0
 10
-69.9596
 20
-102.114
 11
-67.6107
 21
-98.8806
  0
LINE
  8
0
 10
-67.6107
 20
-98.8806
 11
-61.4133
 21
-90.3507
  0
LINE
  8
0
 10
-61.4133
 20
-90.3507
 11
-61.7577
 21
-89.0105
  0
LINE
  8
0
 10
-61.7577
 20
-89.0105
 11
-62.6809
 21
-85.4182
  0
LINE
  8
0
 10
-62.6809
 20
-85.4182
 11
-62.6809
 21
-85.4182
  0
LINE
  8
0
 10
-62.6809
 20
-85.4182
 11
-60.6119
 21
-83.1203
  0
LINE
  8
0
 10
-60.6119
 20
-83.1203
 11
-53.4809
 21
-75.2005
  0
LINE
  8
0
 10
-53.4809
 20
-75.2005
 11
-44.1349
 21
-68.9653
  0
LINE
  8
0
 10
-44.1349
 20
-68.9653
 11
-42.693
 21
-68.0033
  0
LINE
  8
0
 10
-42.693
 20
-68.0033
 11
-42.6574
 21
-68.1595
  0
LINE
  8
0
 10
-42.6574
 20
-68.1595
 11
-42.6496
 21
-68.1935
  0
LINE
  8
0
 10
-42.6496
 20
-68.1935
 11
-42.6279
 21
-68.2207
  0
LINE
  8
0
 10
-42.6279
 20
-68.2207
 11
-41.4695
 21
-69.6733
  0
LINE
  8
0
 10
-41.4695
 20
-69.6733
 11
-39.7956
 21
-70.4794
  0
LINE
  8
0
 10
-39.7956
 20
-70.4794
 11
-39.7642
 21
-70.4945
  0
LINE
  8
0
 10
-39.7642
 20
-70.4945
 11
-37.8714
 21
-70.4945
  0
LINE
  8
0
 10
-37.8714
 20
-70.4945
 11
-37.84
 21
-70.4794
  0
LINE
  8
0
 10
-37.84
 20
-70.4794
 11
-36.1661
 21
-69.6733
  0
LINE
  8
0
 10
-36.1661
 20
-69.6733
 11
-35.0077
 21
-68.2207
  0
LINE
  8
0
 10
-35.0077
 20
-68.2207
 11
-34.9859
 21
-68.1935
  0
LINE
  8
0
 10
-34.9859
 20
-68.1935
 11
-34.9782
 21
-68.1595
  0
LINE
  8
0
 10
-34.9782
 20
-68.1595
 11
-34.5648
 21
-66.3481
  0
LINE
  8
0
 10
-34.5648
 20
-66.3481
 11
-34.6707
 21
-65.8841
  0
LINE
  8
0
 10
-34.6707
 20
-65.8841
 11
-27.0308
 21
-64.4386
  0
LINE
  8
0
 10
-27.0308
 20
-64.4386
 11
-22.4351
 21
-64.4386
  0
LINE
  8
0
 10
-22.4351
 20
-64.4386
 11
-22.4087
 21
-64.4386
  0
LINE
  8
0
 10
-22.4087
 20
-64.4386
 11
-7.48517
 21
-64.4386
  0
LINE
  8
0
 10
-7.48517
 20
-64.4386
 11
-6.69741
 21
-63.1088
  0
LINE
  8
0
 10
-6.69741
 20
-63.1088
 11
-6.44847
 21
-62.6886
  0
LINE
  8
0
 10
-6.44847
 20
-62.6886
 11
-2.2371
 21
-54.851
  0
LINE
  8
0
 10
-2.2371
 20
-54.851
 11
-2.23701
 21
-54.8508
  0
LINE
  8
0
 10
-2.23701
 20
-54.8508
 11
-1.50191
 21
-53.4828
  0
LINE
  8
0
 10
-1.50191
 20
-53.4828
 11
7.99539
 21
-53.4828
  0
LINE
  8
0
 10
7.99539
 20
-53.4828
 11
9.94407
 21
-53.4828
  0
LINE
  8
0
 10
9.94407
 20
-53.4828
 11
9.98057
 21
-53.4828
  0
LINE
  8
0
 10
9.98057
 20
-53.4828
 11
13.5331
 21
-53.4828
  0
LINE
  8
0
 10
13.5331
 20
-53.4828
 11
20.3243
 21
-53.4828
  0
LINE
  8
0
 10
20.3243
 20
-53.4828
 11
20.3684
 21
-53.4828
  0
LINE
  8
0
 10
20.3684
 20
-53.4828
 11
30.5745
 21
-53.4828
  0
LINE
  8
0
 10
30.5745
 20
-53.4828
 11
32.9315
 21
-53.4828
  0
LINE
  8
0
 10
32.9315
 20
-53.4828
 11
32.9738
 21
-53.4828
  0
LINE
  8
0
 10
32.9738
 20
-53.4828
 11
36.3402
 21
-53.4828
  0
LINE
  8
0
 10
36.3402
 20
-53.4828
 11
43.9859
 21
-53.4828
  0
LINE
  8
0
 10
43.9859
 20
-53.4828
 11
53.6325
 21
-53.4828
  0
LINE
  8
0
 10
53.6325
 20
-53.4828
 11
57.0135
 21
-50.1285
  0
LINE
  8
0
 10
57.0135
 20
-50.1285
 11
60.448
 21
-46.7213
  0
LINE
  8
0
 10
60.448
 20
-46.7213
 11
60.5734
 21
-46.3357
  0
LINE
  8
0
 10
60.5734
 20
-46.3357
 11
60.7426
 21
-45.8154
  0
LINE
  8
0
 10
60.7426
 20
-45.8154
 11
60.5185
 21
-36.218
  0
LINE
  8
0
 10
60.5185
 20
-36.218
 11
60.3524
 21
-29.1049
  0
LINE
  8
0
 10
60.3524
 20
-29.1049
 11
60.2981
 21
-24.3726
  0
LINE
  8
0
 10
60.2981
 20
-24.3726
 11
60.2548
 21
-20.6
  0
LINE
  8
0
 10
60.2548
 20
-20.6
 11
60.2548
 21
-3.4
  0
LINE
  8
0
 10
60.2548
 20
-3.4
 11
60.2981
 21
0.372554
  0
LINE
  8
0
 10
60.2981
 20
0.372554
 11
60.3524
 21
5.10489
  0
LINE
  8
0
 10
60.3524
 20
5.10489
 11
60.5185
 21
12.218
  0
LINE
  8
0
 10
60.5185
 20
12.218
 11
60.7404
 21
21.719
  0
LINE
  8
0
 10
60.7404
 20
21.719
 11
60.9046
 21
26.2669
  0
LINE
  8
0
 10
60.9046
 20
26.2669
 11
61.0265
 21
29.6441
  0
LINE
  8
0
 10
61.0265
 20
29.6441
 11
61.4932
 21
38.9191
  0
LINE
  8
0
 10
61.4932
 20
38.9191
 11
61.776
 21
44.5398
  0
LINE
  8
0
 10
61.776
 20
44.5398
 11
62.1018
 21
49.4113
  0
LINE
  8
0
 10
62.1018
 20
49.4113
 11
62.2312
 21
51.3454
  0
LINE
  8
0
 10
62.2312
 20
51.3454
 11
62.6979
 21
56.7005
  0
LINE
  8
0
 10
62.6979
 20
56.7005
 11
63.174
 21
56.9298
  0
LINE
  8
0
 10
63.174
 20
56.9298
 11
64.3324
 21
58.3824
  0
LINE
  8
0
 10
64.3324
 20
58.3824
 11
64.3541
 21
58.4096
  0
LINE
  8
0
 10
64.3541
 20
58.4096
 11
64.3619
 21
58.4436
  0
LINE
  8
0
 10
64.3619
 20
58.4436
 11
64.7753
 21
60.255
  0
LINE
  8
0
 10
64.7753
 20
60.255
 11
64.3619
 21
62.0663
  0
LINE
  8
0
 10
64.3619
 20
62.0663
 11
64.3541
 21
62.1003
  0
LINE
  8
0
 10
64.3541
 20
62.1003
 11
64.3324
 21
62.1275
  0
LINE
  8
0
 10
64.3324
 20
62.1275
 11
63.2853
 21
63.4405
  0
LINE
  8
0
 10
63.2853
 20
63.4405
 11
63.2912
 21
63.5076
  0
LINE
  8
0
 10
63.2912
 20
63.5076
 11
63.2912
 21
63.5076
  0
LINE
  8
0
 10
63.2912
 20
63.5076
 11
63.3916
 21
64.392
  0
LINE
  8
0
 10
63.3916
 20
64.392
 11
63.3916
 21
64.3921
  0
LINE
  8
0
 10
63.3916
 20
64.3921
 11
63.8843
 21
68.7298
  0
LINE
  8
0
 10
63.8843
 20
68.7298
 11
64.9627
 21
75.8733
  0
LINE
  8
0
 10
64.9627
 20
75.8733
 11
65.1836
 21
77.3365
  0
LINE
  8
0
 10
65.1836
 20
77.3365
 11
65.1836
 21
77.3365
  0
LINE
  8
0
 10
65.1836
 20
77.3365
 11
65.1836
 21
77.3365
  0
LINE
  8
0
 10
65.1836
 20
77.3365
 11
65.1901
 21
77.3798
  0
LINE
  8
0
 10
65.1901
 20
77.3798
 11
65.0583
 21
80.0003
  0
LINE
  8
0
 10
65.0583
 20
80.0003
 11
65.0376
 21
80.4109
  0
LINE
  8
0
 10
65.0376
 20
80.4109
 11
64.2185
 21
80.8557
  0
LINE
  8
0
 10
64.2185
 20
80.8557
 11
58.5926
 21
83.9109
  0
LINE
  8
0
 10
58.5926
 20
83.9109
 11
43.4618
 21
83.9109
  0
LINE
  8
0
 10
43.4618
 20
83.9109
 11
41.2712
 21
83.9109
  0
LINE
  8
0
 10
41.2712
 20
83.9109
 11
40.5348
 21
83.9109
  0
LINE
  8
0
 10
40.5348
 20
83.9109
 11
40.5223
 21
83.9109
  0
LINE
  8
0
 10
40.5223
 20
83.9109
 11
40.4242
 21
83.9109
  0
LINE
  8
0
 10
40.4242
 20
83.9109
 11
25.5107
 21
83.9109
  0
LINE
  8
0
 10
25.5107
 20
83.9109
 11
23.392
 21
83.9109
  0
LINE
  8
0
 10
23.392
 20
83.9109
 11
22.7861
 21
83.9109
  0
LINE
  8
0
 10
22.7861
 20
83.9109
 11
22.7743
 21
83.9109
  0
LINE
  8
0
 10
22.7743
 20
83.9109
 11
22.7023
 21
83.9109
  0
LINE
  8
0
 10
22.7023
 20
83.9109
 11
7.99172
 21
83.9109
  0
LINE
  8
0
 10
7.99172
 20
83.9109
 11
6.07782
 21
83.9109
  0
LINE
  8
0
 10
6.07782
 20
83.9109
 11
4.69652
 21
91.8609
  0
LINE
  8
0
 10
4.69652
 20
91.8609
 11
4.5195
 21
92.8798
  0
LINE
  8
0
 10
4.5195
 20
92.8798
 11
4.44722
 21
93.2458
  0
LINE
  8
0
 10
4.44722
 20
93.2458
 11
3.92096
 21
95.9109
  0
LINE
  8
0
 10
3.92096
 20
95.9109
 11
-0.808647
 21
95.9109
  0
LINE
  8
0
 10
-0.808647
 20
95.9109
 11
-1.09267
 21
97.1552
  0
LINE
  8
0
 10
-1.09267
 20
97.1552
 11
-1.10042
 21
97.1892
  0
LINE
  8
0
 10
-1.10042
 20
97.1892
 11
-1.12215
 21
97.2164
  0
LINE
  8
0
 10
-1.12215
 20
97.2164
 11
-2.28054
 21
98.669
  0
LINE
  8
0
 10
-2.28054
 20
98.669
 11
-3.95448
 21
99.4752
  0
LINE
  8
0
 10
-3.95448
 20
99.4752
 11
-3.98587
 21
99.4903
  0
LINE
  8
0
 10
-3.98587
 20
99.4903
 11
-5.87864
 21
99.4903
  0
LINE
  8
0
 10
-5.87864
 20
99.4903
 11
-5.91004
 21
99.4752
  0
LINE
  8
0
 10
-5.91004
 20
99.4752
 11
-7.58397
 21
98.669
  0
LINE
  8
0
 10
-7.58397
 20
98.669
 11
-8.74237
 21
97.2164
  0
LINE
  8
0
 10
-8.74237
 20
97.2164
 11
-8.76409
 21
97.1892
  0
LINE
  8
0
 10
-8.76409
 20
97.1892
 11
-8.77185
 21
97.1552
  0
LINE
  8
0
 10
-8.77185
 20
97.1552
 11
-9.05587
 21
95.9109
  0
LINE
  8
0
 10
-9.05587
 20
95.9109
 11
-10.4551
 21
95.9109
  0
LINE
  8
0
 10
-10.4551
 20
95.9109
 11
-10.4672
 21
95.9109
  0
LINE
  8
0
 10
-10.4672
 20
95.9109
 11
-12.3357
 21
95.9109
  0
LINE
  8
0
 10
-12.3357
 20
95.9109
 11
-14.1345
 21
98.4128
  0
LINE
  8
0
 10
-14.1345
 20
98.4128
 11
-14.3632
 21
98.7309
  0
LINE
  8
0
 10
-14.3632
 20
98.7309
 11
-28.2677
 21
98.7309
  0
LINE
  8
0
 10
-28.2677
 20
98.7309
 11
-28.2793
 21
98.7309
  0
LINE
  8
0
 10
-28.2793
 20
98.7309
 11
-30.123
 21
98.7309
  0
LINE
  8
0
 10
-30.123
 20
98.7309
 11
-30.1329
 21
98.7309
  0
LINE
  8
0
 10
-30.1329
 20
98.7309
 11
-30.1655
 21
98.6863
  0
LINE
  8
0
 10
-30.1655
 20
98.6863
 11
-30.2507
 21
98.57
  0
LINE
  8
0
 10
-30.2507
 20
98.57
 11
-30.9015
 21
97.6809
  0
LINE
  8
0
 10
-30.9015
 20
97.6809
 11
-31.0008
 21
95.9109
  0
LINE
  8
0
 10
-31.0008
 20
95.9109
 11
-43.5683
 21
95.9109
  0
LINE
  8
0
 10
-43.5683
 20
95.9109
 11
-45.1243
 21
95.9109
  0
LINE
  8
0
 10
-45.1243
 20
95.9109
 11
-46.6259
 21
95.9109
  0
LINE
  8
0
 10
-46.6259
 20
95.9109
 11
-46.7846
 21
95.9109
  0
LINE
  8
0
 10
-46.7846
 20
95.9109
 11
-59.6095
 21
95.9109
  0
LINE
  8
0
 10
-59.6095
 20
95.9109
 11
-60.9566
 21
95.9109
  0
LINE
  8
0
 10
-60.9566
 20
95.9109
 11
-60.9637
 21
95.9109
  0
LINE
  8
0
 10
-60.9637
 20
95.9109
 11
-69.5187
 21
87.6859
  0
LINE
  8
0
 10
-69.5187
 20
87.6859
 11
-70.3324
 21
86.9035
  0
LINE
  8
0
 10
-70.3324
 20
86.9035
 11
-77.3324
 21
79.9035
  0
LINE
  8
0
 10
-77.3324
 20
79.9035
 11
-78.3311
 21
78.8983
  0
LINE
  8
0
 10
-78.3311
 20
78.8983
 11
-78.7065
 21
78.5204
  0
LINE
  8
0
 10
-78.7065
 20
78.5204
 11
-78.9523
 21
78.8286
  0
LINE
  8
0
 10
-78.9523
 20
78.8286
 11
-80.6262
 21
79.6348
  0
LINE
  8
0
 10
-80.6262
 20
79.6348
 11
-80.6576
 21
79.6499
  0
LINE
  8
0
 10
-80.6576
 20
79.6499
 11
-82.5504
 21
79.6499
  0
LINE
  8
0
 10
-82.5504
 20
79.6499
 11
-82.5818
 21
79.6348
  0
LINE
  8
0
 10
-82.5818
 20
79.6348
 11
-84.2557
 21
78.8286
  0
LINE
  8
0
 10
-84.2557
 20
78.8286
 11
-85.4141
 21
77.3761
  0
LINE
  8
0
 10
-85.4141
 20
77.3761
 11
-85.4358
 21
77.3488
  0
LINE
  8
0
 10
-85.4358
 20
77.3488
 11
-85.4436
 21
77.3148
  0
LINE
  8
0
 10
-85.4436
 20
77.3148
 11
-85.857
 21
75.5035
  0
LINE
  8
0
 10
-85.857
 20
75.5035
 11
-85.4436
 21
73.6922
  0
LINE
  8
0
 10
-85.4436
 20
73.6922
 11
-85.4358
 21
73.6582
  0
LINE
  8
0
 10
-85.4358
 20
73.6582
 11
-85.4141
 21
73.6309
  0
LINE
  8
0
 10
-85.4141
 20
73.6309
 11
-84.5903
 21
72.5979
  0
LINE
  8
0
 10
-84.5903
 20
72.5979
 11
-85.9755
 21
71.2035
  0
LINE
  8
0
 10
-85.9755
 20
71.2035
 11
-88.1925
 21
68.2376
  0
LINE
  8
0
 10
-88.1925
 20
68.2376
 11
-88.4821
 21
67.8502
  0
LINE
  8
0
 10
-88.4821
 20
67.8502
 11
-89.4486
 21
66.1653
  0
LINE
  8
0
 10
-89.4486
 20
66.1653
 11
-95.5392
 21
55.5465
  0
LINE
  8
0
 10
-95.5392
 20
55.5465
 11
-95.8128
 21
54.9249
  0
LINE
  8
0
 10
-95.8128
 20
54.9249
 11
-97.4626
 21
51.1764
  0
LINE
  8
0
 10
-97.4626
 20
51.1764
 11
-98.2516
 21
48.7939
  0
LINE
  8
0
 10
-98.2516
 20
48.7939
 11
-102.453
 21
36.1075
  0
LINE
  8
0
 10
-102.453
 20
36.1075
 11
-103.471
 21
31.8231
  0
LINE
  8
0
 10
-103.471
 20
31.8231
 11
-103.662
 21
31.0184
  0
LINE
  8
0
 10
-103.662
 20
31.0184
 11
-104.518
 21
25.4471
  0
LINE
  8
0
 10
-104.518
 20
25.4471
 11
-105.221
 21
25.4471
  0
LINE
  8
0
 10
-105.221
 20
25.4471
 11
-105.221
 21
20.8715
  0
LINE
  8
0
 10
-105.221
 20
20.8715
 11
-105.825
 21
16.9425
  0
LINE
  8
0
 10
-105.825
 20
16.9425
 11
-106.245
 21
14.2113
  0
LINE
  8
0
 10
-106.245
 20
14.2113
 11
-106.586
 21
9.69347
  0
LINE
  8
0
 10
-106.586
 20
9.69347
 11
-106.657
 21
8.75
  0
LINE
  8
0
 10
-106.657
 20
8.75
 11
-106.657
 21
-8.75
  0
LINE
  8
0
 10
-106.657
 20
-8.75
 11
-106.586
 21
-9.69347
  0
LINE
  8
0
 10
-106.586
 20
-9.69347
 11
-106.245
 21
-14.2113
  0
LINE
  8
0
 10
-106.245
 20
-14.2113
 11
-105.825
 21
-16.9425
  0
LINE
  8
0
 10
-105.825
 20
-16.9425
 11
-105.221
 21
-20.8715
  0
LINE
  8
0
 10
-105.221
 20
-20.8715
 11
-105.221
 21
-27.4471
  0
LINE
  8
0
 10
-105.221
 20
-27.4471
 11
-104.211
 21
-27.4471
  0
LINE
  8
0
 10
-104.211
 20
-27.4471
 11
-103.662
 21
-31.0184
  0
LINE
  8
0
 10
-103.662
 20
-31.0184
 11
-102.932
 21
-32.7124
  0
LINE
  8
0
 10
-102.932
 20
-32.7124
 11
-100.237
 21
-38.9696
  0
LINE
  8
0
 10
-100.237
 20
-38.9696
 11
-100.804
 21
-39.4456
  0
LINE
  8
0
 10
-100.804
 20
-39.4456
 11
-100.854
 21
-39.4456
  0
LINE
  8
0
 10
-100.854
 20
-39.4456
 11
-100.885
 21
-39.4607
  0
LINE
  8
0
 10
-100.885
 20
-39.4607
 11
-102.559
 21
-40.2668
  0
LINE
  8
0
 10
-102.559
 20
-40.2668
 11
-103.718
 21
-41.7194
  0
LINE
  8
0
 10
-103.718
 20
-41.7194
 11
-103.74
 21
-41.7467
  0
LINE
  8
0
 10
-103.74
 20
-41.7467
 11
-103.747
 21
-41.7806
  0
LINE
  8
0
 10
-103.747
 20
-41.7806
 11
-103.785
 21
-41.9468
  0
LINE
  8
0
 10
-103.785
 20
-41.9468
 11
-106.381
 21
-44.1245
  0
LINE
  8
0
 10
-106.381
 20
-44.1245
 11
-106.381
 21
-44.1247
  0
LINE
  8
0
 10
-106.381
 20
-44.1247
 11
-108.483
 21
-45.889
  0
LINE
  8
0
 10
-108.483
 20
-45.889
 11
-108.483
 21
-45.889
  0
LINE
  8
0
 10
-108.483
 20
-45.889
 11
-108.793
 21
-46.2663
  0
LINE
  8
0
 10
-108.793
 20
-46.2663
 11
-109.739
 21
-47.4205
  0
LINE
  8
0
 10
-109.739
 20
-47.4205
 11
-108.684
 21
-50.0521
  0
LINE
  8
0
 10
-108.684
 20
-50.0521
 11
-105.86
 21
-57.0925
  0
LINE
  8
0
 10
-105.86
 20
-57.0925
 11
-112.211
 21
-65.2212
  0
LINE
  8
0
 10
-112.211
 20
-65.2212
 11
-112.211
 21
-65.2214
  0
LINE
  8
0
 10
-112.211
 20
-65.2214
 11
-114.566
 21
-68.2357
  0
LINE
  8
0
 10
-114.566
 20
-68.2357
 11
-114.585
 21
-68.2596
  0
LINE
  8
0
 10
-114.585
 20
-68.2596
 11
-114.585
 21
-68.2596
  0
LINE
  8
0
 10
-111.51
 20
-68.1232
 11
-108.987
 21
-64.894
  0
LINE
  8
0
 10
-108.987
 20
-64.894
 11
-108.987
 21
-64.8937
  0
LINE
  8
0
 10
-108.987
 20
-64.8937
 11
-102.835
 21
-57.0206
  0
LINE
  8
0
 10
-102.835
 20
-57.0206
 11
-102.835
 21
-57.0206
  0
LINE
  8
0
 10
-102.835
 20
-57.0206
 11
-102.821
 21
-57.0017
  0
LINE
  8
0
 10
-102.821
 20
-57.0017
 11
-102.785
 21
-56.9561
  0
LINE
  8
0
 10
-102.785
 20
-56.9561
 11
-102.785
 21
-56.9561
  0
LINE
  8
0
 10
-102.785
 20
-56.9561
 11
-105.752
 21
-50.1719
  0
LINE
  8
0
 10
-105.752
 20
-50.1719
 11
-106.831
 21
-47.7061
  0
LINE
  8
0
 10
-106.831
 20
-47.7061
 11
-106.251
 21
-47.22
  0
LINE
  8
0
 10
-106.251
 20
-47.22
 11
-103.802
 21
-45.1646
  0
LINE
  8
0
 10
-103.802
 20
-45.1646
 11
-103.747
 21
-45.4033
  0
LINE
  8
0
 10
-103.747
 20
-45.4033
 11
-103.74
 21
-45.4373
  0
LINE
  8
0
 10
-103.74
 20
-45.4373
 11
-103.718
 21
-45.4645
  0
LINE
  8
0
 10
-103.718
 20
-45.4645
 11
-102.559
 21
-46.9171
  0
LINE
  8
0
 10
-102.559
 20
-46.9171
 11
-100.885
 21
-47.7232
  0
LINE
  8
0
 10
-100.885
 20
-47.7232
 11
-100.854
 21
-47.7384
  0
LINE
  8
0
 10
-100.854
 20
-47.7384
 11
-98.9613
 21
-47.7384
  0
LINE
  8
0
 10
-98.9613
 20
-47.7384
 11
-98.9299
 21
-47.7232
  0
LINE
  8
0
 10
-98.9299
 20
-47.7232
 11
-97.256
 21
-46.9171
  0
LINE
  8
0
 10
-97.256
 20
-46.9171
 11
-96.0976
 21
-45.4645
  0
LINE
  8
0
 10
-96.0976
 20
-45.4645
 11
-96.0758
 21
-45.4373
  0
LINE
  8
0
 10
-96.0758
 20
-45.4373
 11
-96.0681
 21
-45.4033
  0
LINE
  8
0
 10
-96.0681
 20
-45.4033
 11
-95.6547
 21
-43.592
  0
LINE
  8
0
 10
-95.6547
 20
-43.592
 11
-96.0681
 21
-41.7806
  0
LINE
  8
0
 10
-96.0681
 20
-41.7806
 11
-96.0758
 21
-41.7467
  0
LINE
  8
0
 10
-96.0758
 20
-41.7467
 11
-96.0976
 21
-41.7194
  0
LINE
  8
0
 10
-96.0976
 20
-41.7194
 11
-97.256
 21
-40.2668
  0
LINE
  8
0
 10
-97.256
 20
-40.2668
 11
-97.8178
 21
-39.9963
  0
LINE
  8
0
 10
-97.8178
 20
-39.9963
 11
-96.9491
 21
-38.937
  0
LINE
  8
0
 10
-96.9491
 20
-38.937
 11
-96.9491
 21
-38.937
  0
LINE
  8
0
 10
-96.9491
 20
-38.937
 11
-97.6587
 21
-37.7035
  0
LINE
  8
0
 10
-97.6587
 20
-37.7035
 11
-101.562
 21
-30.9184
  0
LINE
  8
0
 10
-101.562
 20
-30.9184
 11
-102.095
 21
-27.4471
  0
LINE
  8
0
 10
-102.095
 20
-27.4471
 11
-96.2213
 21
-27.4471
  0
LINE
  8
0
 10
-96.2213
 20
-27.4471
 11
-96.2213
 21
25.4471
  0
LINE
  8
0
 10
-96.2213
 20
25.4471
 11
-102.403
 21
25.4471
  0
LINE
  8
0
 10
-102.403
 20
25.4471
 11
-101.562
 21
30.9184
  0
LINE
  8
0
 10
-101.562
 20
30.9184
 11
-101.381
 21
31.6812
  0
LINE
  8
0
 10
-101.381
 20
31.6812
 11
-100.353
 21
36.0075
  0
LINE
  8
0
 10
-100.353
 20
36.0075
 11
-99.6763
 21
38.0501
  0
LINE
  8
0
 10
-99.6763
 20
38.0501
 11
-95.3626
 21
51.0764
  0
LINE
  8
0
 10
-95.3626
 20
51.0764
 11
-95.1112
 21
51.6477
  0
LINE
  8
0
 10
-95.1112
 20
51.6477
 11
-93.4392
 21
55.4465
  0
LINE
  8
0
 10
-93.4392
 20
55.4465
 11
-87.3047
 21
66.1418
  0
LINE
  8
0
 10
-87.3047
 20
66.1418
 11
-86.3821
 21
67.7502
  0
LINE
  8
0
 10
-86.3821
 20
67.7502
 11
-86.1037
 21
68.1227
  0
LINE
  8
0
 10
-86.1037
 20
68.1227
 11
-83.8755
 21
71.1035
  0
LINE
  8
0
 10
-83.8755
 20
71.1035
 11
-83.2763
 21
71.7067
  0
LINE
  8
0
 10
-83.2763
 20
71.7067
 11
-82.5818
 21
71.3722
  0
LINE
  8
0
 10
-82.5818
 20
71.3722
 11
-82.5504
 21
71.3571
  0
LINE
  8
0
 10
-82.5504
 20
71.3571
 11
-80.6576
 21
71.3571
  0
LINE
  8
0
 10
-80.6576
 20
71.3571
 11
-80.6262
 21
71.3722
  0
LINE
  8
0
 10
-80.6262
 20
71.3722
 11
-78.9523
 21
72.1784
  0
LINE
  8
0
 10
-78.9523
 20
72.1784
 11
-77.7939
 21
73.6309
  0
LINE
  8
0
 10
-77.7939
 20
73.6309
 11
-77.7721
 21
73.6582
  0
LINE
  8
0
 10
-77.7721
 20
73.6582
 11
-77.7644
 21
73.6922
  0
LINE
  8
0
 10
-77.7644
 20
73.6922
 11
-77.351
 21
75.5035
  0
LINE
  8
0
 10
-77.351
 20
75.5035
 11
-77.7533
 21
77.2661
  0
LINE
  8
0
 10
-77.7533
 20
77.2661
 11
-75.2324
 21
79.8035
  0
LINE
  8
0
 10
-75.2324
 20
79.8035
 11
-70.2324
 21
84.8035
  0
LINE
  8
0
 10
-70.2324
 20
84.8035
 11
-61.8319
 21
91.1426
  0
LINE
  8
0
 10
-61.8319
 20
91.1426
 11
-60.9212
 21
91.8298
  0
LINE
  8
0
 10
-60.9212
 20
91.8298
 11
-47.9883
 21
91.8298
  0
LINE
  8
0
 10
-47.9883
 20
91.8298
 11
-46.7576
 21
91.8298
  0
LINE
  8
0
 10
-46.7576
 20
91.8298
 11
-45.2466
 21
91.8298
  0
LINE
  8
0
 10
-45.2466
 20
91.8298
 11
-45.0885
 21
91.8298
  0
LINE
  8
0
 10
-45.0885
 20
91.8298
 11
-31.5345
 21
91.8298
  0
LINE
  8
0
 10
-31.5345
 20
91.8298
 11
-31.5269
 21
91.8298
  0
LINE
  8
0
 10
-31.5269
 20
91.8298
 11
-30.107
 21
91.8298
  0
LINE
  8
0
 10
-30.107
 20
91.8298
 11
-30.098
 21
91.8298
  0
LINE
  8
0
 10
-30.098
 20
91.8298
 11
-30.0592
 21
91.8746
  0
LINE
  8
0
 10
-30.0592
 20
91.8746
 11
-30.0547
 21
91.8798
  0
LINE
  8
0
 10
-30.0547
 20
91.8798
 11
-29.3174
 21
92.7312
  0
LINE
  8
0
 10
-29.3174
 20
92.7312
 11
-29.232
 21
92.8298
  0
LINE
  8
0
 10
-29.232
 20
92.8298
 11
-29.2276
 21
92.8349
  0
LINE
  8
0
 10
-29.2276
 20
92.8349
 11
-29.1887
 21
92.8798
  0
LINE
  8
0
 10
-29.1887
 20
92.8798
 11
-29.1887
 21
92.8798
  0
LINE
  8
0
 10
-29.1887
 20
92.8798
 11
-29.2603
 21
94.6498
  0
LINE
  8
0
 10
-29.2603
 20
94.6498
 11
-16.1105
 21
94.6498
  0
LINE
  8
0
 10
-16.1105
 20
94.6498
 11
-16.1014
 21
94.6498
  0
LINE
  8
0
 10
-16.1014
 20
94.6498
 11
-14.4828
 21
94.6498
  0
LINE
  8
0
 10
-14.4828
 20
94.6498
 11
-12.6933
 21
92.1634
  0
LINE
  8
0
 10
-12.6933
 20
92.1634
 11
-12.6933
 21
92.1634
  0
LINE
  8
0
 10
-12.6933
 20
92.1634
 11
-12.4532
 21
91.8298
  0
LINE
  8
0
 10
-12.4532
 20
91.8298
 11
-7.19157
 21
91.8298
  0
LINE
  8
0
 10
-7.19157
 20
91.8298
 11
-5.91004
 21
91.2126
  0
LINE
  8
0
 10
-5.91004
 20
91.2126
 11
-5.87864
 21
91.1975
  0
LINE
  8
0
 10
-5.87864
 20
91.1975
 11
-3.98587
 21
91.1975
  0
LINE
  8
0
 10
-3.98587
 20
91.1975
 11
-3.95448
 21
91.2126
  0
LINE
  8
0
 10
-3.95448
 20
91.2126
 11
-2.67294
 21
91.8298
  0
LINE
  8
0
 10
-2.67294
 20
91.8298
 11
2.05287
 21
91.8298
  0
LINE
  8
0
 10
2.05287
 20
91.8298
 11
3.76124
 21
91.8298
  0
LINE
  8
0
 10
3.76124
 20
91.8298
 11
5.96346
 21
79.8298
  0
LINE
  8
0
 10
5.96346
 20
79.8298
 11
20.8606
 21
79.8298
  0
LINE
  8
0
 10
20.8606
 20
79.8298
 11
22.759
 21
79.8298
  0
LINE
  8
0
 10
22.759
 20
79.8298
 11
23.3719
 21
79.8298
  0
LINE
  8
0
 10
23.3719
 20
79.8298
 11
23.3834
 21
79.8298
  0
LINE
  8
0
 10
23.3834
 20
79.8298
 11
23.4593
 21
79.8298
  0
LINE
  8
0
 10
23.4593
 20
79.8298
 11
38.4484
 21
79.8298
  0
LINE
  8
0
 10
38.4484
 20
79.8298
 11
38.4598
 21
79.8298
  0
LINE
  8
0
 10
38.4598
 20
79.8298
 11
40.4917
 21
79.8298
  0
LINE
  8
0
 10
40.4917
 20
79.8298
 11
41.2346
 21
79.8298
  0
LINE
  8
0
 10
41.2346
 20
79.8298
 11
41.2469
 21
79.8298
  0
LINE
  8
0
 10
41.2469
 20
79.8298
 11
41.3489
 21
79.8298
  0
LINE
  8
0
 10
41.3489
 20
79.8298
 11
56.4232
 21
79.8298
  0
LINE
  8
0
 10
56.4232
 20
79.8298
 11
58.487
 21
79.8298
  0
LINE
  8
0
 10
58.487
 20
79.8298
 11
62.5051
 21
77.6477
  0
LINE
  8
0
 10
62.5051
 20
77.6477
 11
62.5267
 21
77.636
  0
LINE
  8
0
 10
62.5267
 20
77.636
 11
61.6322
 21
71.7109
  0
LINE
  8
0
 10
61.6322
 20
71.7109
 11
61.1015
 21
67.0385
  0
LINE
  8
0
 10
61.1015
 20
67.0385
 11
60.9896
 21
66.0532
  0
LINE
  8
0
 10
60.9896
 20
66.0532
 11
60.9884
 21
66.0391
  0
LINE
  8
0
 10
60.9884
 20
66.0391
 11
60.8457
 21
64.4013
  0
LINE
  8
0
 10
60.8457
 20
64.4013
 11
59.5759
 21
64.4013
  0
LINE
  8
0
 10
59.5759
 20
64.4013
 11
59.5445
 21
64.3862
  0
LINE
  8
0
 10
59.5445
 20
64.3862
 11
57.8706
 21
63.5801
  0
LINE
  8
0
 10
57.8706
 20
63.5801
 11
56.7122
 21
62.1275
  0
LINE
  8
0
 10
56.7122
 20
62.1275
 11
56.6904
 21
62.1003
  0
LINE
  8
0
 10
56.6904
 20
62.1003
 11
56.6827
 21
62.0663
  0
LINE
  8
0
 10
56.6827
 20
62.0663
 11
56.2693
 21
60.255
  0
LINE
  8
0
 10
56.2693
 20
60.255
 11
56.6827
 21
58.4436
  0
LINE
  8
0
 10
56.6827
 20
58.4436
 11
56.6904
 21
58.4096
  0
LINE
  8
0
 10
56.6904
 20
58.4096
 11
56.7122
 21
58.3824
  0
LINE
  8
0
 10
56.7122
 20
58.3824
 11
57.8706
 21
56.9298
  0
LINE
  8
0
 10
57.8706
 20
56.9298
 11
59.5445
 21
56.1237
  0
LINE
  8
0
 10
59.5445
 20
56.1237
 11
59.5759
 21
56.1086
  0
LINE
  8
0
 10
59.5759
 20
56.1086
 11
60.1229
 21
56.1086
  0
LINE
  8
0
 10
60.1229
 20
56.1086
 11
59.9173
 21
53.7496
  0
LINE
  8
0
 10
59.9173
 20
53.7496
 11
59.5539
 21
48.3161
  0
LINE
  8
0
 10
59.5539
 20
48.3161
 11
59.4242
 21
46.3764
  0
LINE
  8
0
 10
59.4242
 20
46.3764
 11
59.4229
 21
46.3496
  0
LINE
  8
0
 10
59.4229
 20
46.3496
 11
59.4228
 21
46.3482
  0
LINE
  8
0
 10
59.4228
 20
46.3482
 11
58.8998
 21
35.954
  0
LINE
  8
0
 10
58.8998
 20
35.954
 11
58.6678
 21
31.3438
  0
LINE
  8
0
 10
58.6678
 20
31.3438
 11
58.6659
 21
31.3075
  0
LINE
  8
0
 10
58.6659
 20
31.3075
 11
58.5136
 21
27.0862
  0
LINE
  8
0
 10
58.5136
 20
27.0862
 11
58.356
 21
22.7213
  0
LINE
  8
0
 10
58.356
 20
22.7213
 11
58.3548
 21
22.6722
  0
LINE
  8
0
 10
58.3548
 20
22.6722
 11
58.1564
 21
14.1771
  0
LINE
  8
0
 10
58.1564
 20
14.1771
 11
57.9649
 21
5.97485
  0
LINE
  8
0
 10
57.9649
 20
5.97485
 11
57.9635
 21
5.91418
  0
LINE
  8
0
 10
57.9635
 20
5.91418
 11
57.9243
 21
2.49583
  0
LINE
  8
0
 10
57.9243
 20
2.49583
 11
57.8577
 21
-3.3
  0
LINE
  8
0
 10
57.8577
 20
-3.3
 11
57.8577
 21
-20.7
  0
LINE
  8
0
 10
57.8577
 20
-20.7
 11
57.9243
 21
-26.4958
  0
LINE
  8
0
 10
57.9243
 20
-26.4958
 11
57.9635
 21
-29.9142
  0
LINE
  8
0
 10
57.9635
 20
-29.9142
 11
57.9649
 21
-29.9748
  0
LINE
  8
0
 10
57.9649
 20
-29.9748
 11
58.1564
 21
-38.1771
  0
LINE
  8
0
 10
58.1564
 20
-38.1771
 11
58.3397
 21
-46.025
  0
LINE
  8
0
 10
58.3397
 20
-46.025
 11
56.7286
 21
-47.6234
  0
LINE
  8
0
 10
56.7286
 20
-47.6234
 11
53.7802
 21
-50.5485
  0
LINE
  8
0
 10
53.7802
 20
-50.5485
 11
47.4242
 21
-50.5485
  0
LINE
  8
0
 10
47.4242
 20
-50.5485
 11
36.6252
 21
-50.5485
  0
LINE
  8
0
 10
36.6252
 20
-50.5485
 11
34.6194
 21
-50.5485
  0
LINE
  8
0
 10
34.6194
 20
-50.5485
 11
31.0907
 21
-50.5485
  0
LINE
  8
0
 10
31.0907
 20
-50.5485
 11
25.5446
 21
-50.5485
  0
LINE
  8
0
 10
25.5446
 20
-50.5485
 11
14.0644
 21
-50.5485
  0
LINE
  8
0
 10
14.0644
 20
-50.5485
 11
12.3992
 21
-50.5485
  0
LINE
  8
0
 10
12.3992
 20
-50.5485
 11
8.76293
 21
-50.5485
  0
LINE
  8
0
 10
8.76293
 20
-50.5485
 11
4.16888
 21
-50.5485
  0
LINE
  8
0
 10
4.16888
 20
-50.5485
 11
-8.0139
 21
-50.5485
  0
LINE
  8
0
 10
-8.0139
 20
-50.5485
 11
-8.0139
 21
-50.5485
  0
LINE
  8
0
 10
-8.0139
 20
-50.5485
 11
-8.27818
 21
-50.8221
  0
LINE
  8
0
 10
-8.27818
 20
-50.8221
 11
-8.8889
 21
-51.4543
  0
LINE
  8
0
 10
-8.8889
 20
-51.4543
 11
-8.88688
 21
-51.4835
  0
LINE
  8
0
 10
-8.88688
 20
-51.4835
 11
-8.78867
 21
-52.8997
  0
LINE
  8
0
 10
-8.78867
 20
-52.8997
 11
-8.75023
 21
-53.454
  0
LINE
  8
0
 10
-8.75023
 20
-53.454
 11
-8.74823
 21
-53.4828
  0
LINE
  8
0
 10
-8.74823
 20
-53.4828
 11
-8.71949
 21
-53.4828
  0
LINE
  8
0
 10
-8.71949
 20
-53.4828
 11
-4.93468
 21
-53.4828
  0
LINE
  8
0
 10
-4.93468
 20
-53.4828
 11
-7.36397
 21
-59.1118
  0
LINE
  8
0
 10
-7.36397
 20
-59.1118
 11
-8.12271
 21
-60.8699
  0
LINE
  8
0
 10
-8.12271
 20
-60.8699
 11
-11.4452
 21
-60.8699
  0
LINE
  8
0
 10
-11.4452
 20
-60.8699
 11
-26.4472
 21
-60.8699
  0
LINE
  8
0
 10
-26.4472
 20
-60.8699
 11
-29.0556
 21
-61.4996
  0
LINE
  8
0
 10
-29.0556
 20
-61.4996
 11
-36.037
 21
-63.1849
  0
LINE
  8
0
 10
-36.037
 20
-63.1849
 11
-36.1661
 21
-63.023
  0
LINE
  8
0
 10
-36.1661
 20
-63.023
 11
-37.84
 21
-62.2169
  0
LINE
  8
0
 10
-37.84
 20
-62.2169
 11
-37.8714
 21
-62.2018
  0
LINE
  8
0
 10
-37.8714
 20
-62.2018
 11
-39.7642
 21
-62.2018
  0
LINE
  8
0
 10
-39.7642
 20
-62.2018
 11
-39.7956
 21
-62.2169
  0
LINE
  8
0
 10
-39.7956
 20
-62.2169
 11
-41.4695
 21
-63.023
  0
LINE
  8
0
 10
-41.4695
 20
-63.023
 11
-42.6279
 21
-64.4756
  0
LINE
  8
0
 10
-42.6279
 20
-64.4756
 11
-42.6496
 21
-64.5028
  0
LINE
  8
0
 10
-42.6496
 20
-64.5028
 11
-42.6574
 21
-64.5368
  0
LINE
  8
0
 10
-42.6574
 20
-64.5368
 11
-42.9262
 21
-65.7146
  0
LINE
  8
0
 10
-42.9262
 20
-65.7146
 11
-43.7802
 21
-66.2696
  0
LINE
  8
0
 10
-43.7802
 20
-66.2696
 11
-54.5539
 21
-73.271
  0
LINE
  8
0
 10
-54.5539
 20
-73.271
 11
-55.7875
 21
-74.2126
  0
LINE
  8
0
 10
-55.7875
 20
-74.2126
 11
-56.1282
 21
-74.4727
  0
LINE
  8
0
 10
-56.1282
 20
-74.4727
 11
-56.1724
 21
-74.5218
  0
LINE
  8
0
 10
-56.1724
 20
-74.5218
 11
-56.1837
 21
-74.5343
  0
LINE
  8
0
 10
-56.1837
 20
-74.5343
 11
-58.6178
 21
-77.2377
  0
LINE
  8
0
 10
-58.6178
 20
-77.2377
 11
-65.7392
 21
-85.1468
  0
LINE
  8
0
 10
-65.7392
 20
-85.1468
 11
-65.7392
 21
-85.1468
  0
LINE
  8
0
 10
-65.7392
 20
-85.1468
 11
-65.7806
 21
-85.1928
  0
LINE
  8
0
 10
-65.7806
 20
-85.1928
 11
-65.0249
 21
-88.7003
  0
LINE
  8
0
 10
-65.0249
 20
-88.7003
 11
-64.768
 21
-89.8924
  0
LINE
  8
0
 10
-64.768
 20
-89.8924
 11
-67.6354
 21
-93.839
  0
LINE
  8
0
 10
-67.6354
 20
-93.839
 11
-72.576
 21
-100.639
  0
LINE
  8
0
 10
-72.576
 20
-100.639
 11
-73.9668
 21
-100.63
  0
LINE
  8
0
 10
-73.9668
 20
-100.63
 11
-77.3013
 21
-100.607
  0
LINE
  8
0
 10
-77.3013
 20
-100.607
 11
-84.0037
 21
-93.9338
  0
LINE
  8
0
 10
-84.0037
 20
-93.9338
 11
-89.2286
 21
-88.7314
  0
LINE
  8
0
 10
-89.2286
 20
-88.7314
 11
-92.7096
 21
-87.3888
  0
LINE
  8
0
 10
-92.7096
 20
-87.3888
 11
-97.127
 21
-85.6851
  0
LINE
  8
0
 10
-97.127
 20
-85.6851
 11
-104.42
 21
-79.501
  0
LINE
  8
0
 10
-104.42
 20
-79.501
 11
-110.224
 21
-74.5792
  0
LINE
  8
0
 10
-110.224
 20
-74.5792
 11
-110.754
 21
-71.9195
  0
LINE
  8
0
 10
-110.754
 20
-71.9195
 11
-111.51
 21
-68.1232
  0
LINE
  8
0
 10
-101.608
 20
-43.592
 11
-100.758
 21
-42.1197
  0
LINE
  8
0
 10
-100.758
 20
-42.1197
 11
-99.0577
 21
-42.1197
  0
LINE
  8
0
 10
-99.0577
 20
-42.1197
 11
-98.2077
 21
-43.592
  0
LINE
  8
0
 10
-98.2077
 20
-43.592
 11
-99.0577
 21
-45.0642
  0
LINE
  8
0
 10
-99.0577
 20
-45.0642
 11
-100.758
 21
-45.0642
  0
LINE
  8
0
 10
-100.758
 20
-45.0642
 11
-101.608
 21
-43.592
  0
LINE
  8
0
 10
-83.304
 20
75.5035
 11
-82.454
 21
76.9757
  0
LINE
  8
0
 10
-82.454
 20
76.9757
 11
-80.754
 21
76.9757
  0
LINE
  8
0
 10
-80.754
 20
76.9757
 11
-79.904
 21
75.5035
  0
LINE
  8
0
 10
-79.904
 20
75.5035
 11
-80.754
 21
74.0313
  0
LINE
  8
0
 10
-80.754
 20
74.0313
 11
-82.454
 21
74.0313
  0
LINE
  8
0
 10
-82.454
 20
74.0313
 11
-83.304
 21
75.5035
  0
LINE
  8
0
 10
-40.5178
 20
-66.3481
 11
-39.6678
 21
-64.8759
  0
LINE
  8
0
 10
-39.6678
 20
-64.8759
 11
-37.9678
 21
-64.8759
  0
LINE
  8
0
 10
-37.9678
 20
-64.8759
 11
-37.1178
 21
-66.3481
  0
LINE
  8
0
 10
-37.1178
 20
-66.3481
 11
-37.9678
 21
-67.8204
  0
LINE
  8
0
 10
-37.9678
 20
-67.8204
 11
-39.6678
 21
-67.8204
  0
LINE
  8
0
 10
-39.6678
 20
-67.8204
 11
-40.5178
 21
-66.3481
  0
LINE
  8
0
 10
-6.63226
 20
95.3439
 11
-5.78226
 21
96.8161
  0
LINE
  8
0
 10
-5.78226
 20
96.8161
 11
-4.08226
 21
96.8161
  0
LINE
  8
0
 10
-4.08226
 20
96.8161
 11
-3.23226
 21
95.3439
  0
LINE
  8
0
 10
-3.23226
 20
95.3439
 11
-4.08226
 21
93.8716
  0
LINE
  8
0
 10
-4.08226
 20
93.8716
 11
-5.78226
 21
93.8716
  0
LINE
  8
0
 10
-5.78226
 20
93.8716
 11
-6.63226
 21
95.3439
  0
LINE
  8
0
 10
58.8223
 20
60.255
 11
59.6723
 21
61.7272
  0
LINE
  8
0
 10
59.6723
 20
61.7272
 11
61.3723
 21
61.7272
  0
LINE
  8
0
 10
61.3723
 20
61.7272
 11
62.2223
 21
60.255
  0
LINE
  8
0
 10
62.2223
 20
60.255
 11
61.3723
 21
58.7827
  0
LINE
  8
0
 10
61.3723
 20
58.7827
 11
59.6723
 21
58.7827
  0
LINE
  8
0
 10
59.6723
 20
58.7827
 11
58.8223
 21
60.255
  0
ENDSEC
  0
SECTION
  2
OBJECTS
  0
DICTIONARY
  0
ENDSEC
  0
EOF
